 <svg version="1.0" xmlns="http://www.w3.org/2000/svg" width="700.000000pt" height="238.000000pt" viewBox="0 0 700.000000 238.000000" preserveAspectRatio="xMidYMid meet">
<metadata>
Created by potrace 1.12, written by Peter Selinger 2001-2015
</metadata>
<g transform="translate(0.000000,238.000000) scale(0.100000,-0.100000)" fill="#000000" stroke="none">
<path d="M451 2184 c-136 -45 -254 -143 -313 -257 -15 -31 -20 -59 -19 -126 0
-76 4 -93 28 -136 15 -28 48 -71 74 -96 97 -95 294 -124 527 -79 125 24 134
25 130 3 -2 -12 -23 -20 -73 -30 -389 -73 -409 -81 -463 -173 -24 -39 -27 -55
-26 -130 0 -134 42 -203 187 -314 149 -113 333 -211 522 -279 231 -83 276 -94
318 -78 41 16 34 47 -34 152 -80 122 -176 312 -239 474 -4 11 -15 38 -23 60
-34 84 -77 217 -77 235 0 23 12 31 59 41 20 4 46 11 59 14 19 6 24 2 37 -28
22 -54 61 -94 111 -113 60 -23 199 -14 309 19 87 27 169 48 255 68 30 6 77 22
104 35 28 13 51 24 53 24 2 0 3 -11 3 -24 0 -40 11 -56 51 -76 89 -46 519 -13
614 47 11 6 25 9 31 5 17 -11 42 -65 46 -97 2 -23 -3 -31 -35 -49 -100 -57
-159 -149 -165 -259 -5 -77 11 -131 63 -212 82 -128 252 -289 379 -360 58 -32
74 -37 112 -32 56 6 78 26 94 83 18 62 7 130 -36 231 -30 69 -34 87 -23 94 8
5 71 9 140 9 l126 0 17 -48 c60 -165 146 -359 199 -445 24 -40 34 -48 55 -45
32 4 83 91 64 110 -10 10 -19 8 -43 -6 -37 -22 -33 -26 -90 89 -38 77 -119
300 -119 330 0 21 11 25 122 40 57 8 119 17 138 21 43 7 52 -2 73 -71 8 -27
34 -102 57 -165 53 -148 87 -244 106 -299 9 -24 32 -82 53 -130 29 -68 43 -88
64 -95 23 -9 31 -6 55 17 l27 27 -19 35 c-10 19 -27 37 -37 40 -11 4 -30 25
-43 48 -60 102 -211 540 -204 590 2 18 12 23 58 29 30 4 89 13 130 18 77 11
220 16 254 9 13 -3 25 5 35 23 13 23 13 28 1 43 -16 20 -30 19 -275 -14 -82
-12 -171 -21 -197 -21 l-47 0 -16 53 c-9 28 -19 86 -22 127 -6 78 -22 110 -53
110 -50 0 -50 -56 1 -197 26 -73 31 -95 21 -105 -12 -12 -61 -19 -239 -34 -82
-7 -82 -7 -92 19 -11 27 -44 168 -55 230 -9 47 -32 59 -58 27 -29 -36 -32 -66
-10 -97 11 -15 30 -61 42 -101 20 -63 21 -75 9 -86 -15 -14 -247 -40 -271 -31
-8 3 -31 36 -51 73 -21 37 -69 118 -107 180 -39 63 -70 120 -70 128 0 16 149
94 180 94 11 0 42 -11 68 -24 71 -35 146 -50 262 -50 l105 -1 3 29 c5 42 -10
52 -57 36 -66 -21 -271 20 -296 60 -3 5 11 24 31 42 38 34 74 103 74 143 0 40
-28 92 -67 124 -80 66 -203 63 -263 -6 -53 -60 -37 -148 47 -250 19 -24 32
-47 28 -53 -8 -12 -125 -70 -143 -70 -15 0 -62 99 -62 130 0 11 9 24 19 29 41
22 53 113 20 155 -30 39 -70 35 -100 -9 -13 -19 -30 -35 -37 -35 -7 0 -34 12
-61 26 -54 28 -133 34 -170 14 -31 -16 -61 -69 -61 -107 0 -35 18 -83 32 -83
4 0 8 -7 8 -15 0 -12 -17 -15 -87 -17 -285 -8 -306 7 -192 139 32 37 59 78 59
89 0 45 -20 49 -224 46 -244 -4 -268 -19 -129 -77 150 -63 161 -80 83 -120
-62 -32 -85 -27 -77 14 13 66 -73 109 -195 98 -48 -4 -66 -11 -89 -33 -36 -34
-40 -92 -9 -131 11 -14 20 -32 20 -39 0 -31 -184 -55 -269 -34 -41 10 -57 19
-72 44 -35 57 -21 75 72 95 145 30 202 68 197 130 -5 54 -51 81 -140 81 -41 0
-80 -6 -97 -14 -41 -22 -88 -80 -102 -126 -7 -22 -17 -44 -23 -48 -17 -13 -90
-32 -120 -32 -24 0 -26 4 -26 39 0 59 -17 67 -92 41 -35 -12 -117 -29 -182
-37 -278 -36 -480 37 -516 186 -7 29 -10 73 -6 97 24 178 265 348 470 332 106
-9 215 -69 252 -140 31 -59 7 -142 -53 -183 -35 -24 -120 -36 -234 -33 -108 3
-114 2 -114 -17 0 -34 49 -49 170 -49 100 0 115 2 160 26 95 50 145 125 145
219 0 94 -59 163 -177 206 -91 33 -228 32 -332 -3z m2562 -480 c18 -9 49 -32
70 -52 31 -31 37 -42 37 -79 0 -35 -6 -50 -35 -82 -19 -21 -44 -41 -56 -44
-45 -12 -139 109 -139 178 0 27 8 44 29 66 34 33 49 35 94 13z m-1628 -54 c16
-18 17 -22 4 -34 -11 -11 -164 -66 -184 -66 -11 0 -5 33 11 59 35 60 131 83
169 41z m675 -27 c0 -19 -28 -53 -45 -53 -12 0 -65 51 -65 63 0 4 25 7 55 7
45 0 55 -3 55 -17z m470 -48 c37 -20 83 -72 77 -88 -12 -31 -153 -29 -182 3
-25 27 -16 82 15 97 26 13 46 10 90 -12z m210 4 c0 -17 -20 -49 -30 -49 -11 0
-14 43 -3 53 10 11 33 8 33 -4z m-1007 -51 c49 -25 -6 -79 -83 -82 -51 -1 -90
22 -90 54 0 40 113 59 173 28z m-839 -124 c9 -8 16 -22 16 -30 0 -14 73 -214
107 -294 8 -19 19 -44 23 -55 50 -117 163 -334 202 -384 23 -30 24 -61 1 -61
-59 0 -248 46 -295 71 -10 5 -22 9 -27 9 -12 0 -176 79 -216 104 -185 115
-280 203 -323 299 -19 43 -15 142 7 185 43 84 85 101 406 160 74 14 82 13 99
-4z m1930 -290 c42 -69 76 -128 76 -130 0 -2 14 -25 30 -51 17 -26 30 -52 30
-58 0 -6 -28 -16 -62 -22 -99 -19 -120 -63 -30 -63 26 0 64 4 84 9 46 11 59 2
91 -59 34 -65 49 -127 45 -190 -3 -54 -4 -55 -32 -53 -16 1 -72 23 -124 49
-78 39 -109 62 -186 138 -115 115 -196 245 -196 315 0 75 38 142 110 196 34
25 68 45 75 45 8 0 48 -57 89 -126z"></path>
<path d="M6660 922 c-86 -42 -165 -113 -264 -234 -21 -27 -42 -48 -47 -48 -5
0 -9 17 -9 38 0 55 -32 102 -70 102 -41 0 -153 -46 -185 -76 -33 -31 -29 -58
21 -125 54 -74 43 -97 -57 -114 -57 -10 -65 10 -34 86 44 109 32 124 -72 90
-61 -19 -69 -19 -90 -6 l-23 16 21 40 c26 52 28 142 3 170 -35 39 -102 19
-165 -48 -75 -79 -90 -147 -39 -185 17 -12 30 -26 30 -30 0 -14 -107 -58 -140
-58 -57 0 -63 65 -13 143 26 41 27 70 3 75 -15 2 -42 -29 -93 -107 -22 -35
-179 -151 -204 -151 -7 0 -13 11 -13 26 0 33 -17 64 -35 64 -21 0 -19 19 5 58
18 28 19 37 8 50 -34 44 -45 42 -111 -18 -56 -51 -97 -118 -97 -157 0 -21 -46
-63 -69 -63 -6 0 -11 13 -11 29 0 28 -28 66 -65 87 -18 10 -18 12 -2 62 22 66
21 95 -3 117 -18 17 -20 17 -44 -1 -34 -26 -129 -141 -155 -187 -11 -21 -21
-53 -21 -72 0 -37 -6 -43 -60 -62 -47 -17 -95 -16 -130 2 -30 15 -40 48 -20
60 26 16 60 87 60 123 0 66 -64 97 -106 51 -10 -12 -45 -33 -76 -47 -70 -30
-93 -65 -76 -115 17 -50 37 -67 80 -67 28 0 53 -10 89 -35 46 -32 58 -35 121
-35 78 0 119 17 204 82 67 50 114 65 132 41 8 -11 11 -31 8 -52 -6 -38 8 -71
29 -71 9 0 55 26 103 57 96 63 135 83 163 83 14 0 18 -9 21 -47 3 -47 4 -48
36 -47 23 2 58 22 128 74 52 40 101 69 109 67 7 -3 15 -16 17 -28 2 -12 14
-30 28 -40 39 -28 117 -8 208 52 70 47 102 60 102 40 0 -6 -5 -13 -10 -16 -20
-12 -60 -85 -60 -108 0 -40 39 -67 97 -67 43 0 56 5 83 30 l33 31 24 -23 c32
-30 111 -30 169 -1 56 30 69 49 68 100 -1 36 -7 50 -37 81 -21 21 -37 45 -37
54 0 26 60 50 116 46 l49 -3 0 -123 c0 -117 1 -123 20 -120 14 2 34 32 70 101
55 108 114 181 214 263 64 53 101 68 101 40 0 -7 -12 -45 -26 -82 -29 -75 -40
-119 -57 -237 -10 -71 -9 -81 10 -120 40 -83 129 -162 175 -155 49 7 49 68 1
68 -37 0 -78 28 -111 76 -24 34 -27 49 -27 119 0 79 6 106 50 235 13 36 24 88
26 115 4 44 2 50 -16 52 -11 2 -36 -5 -55 -15z m-850 -131 c25 -48 -9 -131
-55 -131 -36 0 -85 27 -85 47 0 23 86 103 110 103 11 0 24 -9 30 -19z m-1010
-143 c0 -21 -64 -108 -84 -114 -40 -13 -34 14 15 69 50 56 69 69 69 45z m330
-19 c0 -19 -41 -69 -56 -69 -21 0 -17 24 11 54 25 27 45 34 45 15z m-710 -24
c0 -8 -4 -15 -10 -15 -5 0 -10 7 -10 15 0 8 5 15 10 15 6 0 10 -7 10 -15z
m1560 -9 c0 -14 -24 -66 -31 -66 -17 0 -31 40 -18 56 10 12 49 21 49 10z
m-1650 -60 c0 -13 -7 -29 -16 -36 -21 -18 -49 9 -39 39 10 31 55 29 55 -3z
m1550 -17 c9 -15 8 -24 -1 -37 -34 -45 -71 -55 -88 -24 -7 14 -4 26 15 50 29
37 58 41 74 11z"></path>
</g>
</svg>